<?xml version="1.0" encoding="iso-8859-1"?>
<!-- Uploaded to: SVG Repo, www.svgrepo.com, Generator: SVG Repo Mixer Tools -->
<!DOCTYPE svg PUBLIC "-//W3C//DTD SVG 1.1//EN" "http://www.w3.org/Graphics/SVG/1.1/DTD/svg11.dtd">
<svg fill="#000000" version="1.1" id="Capa_1" xmlns="http://www.w3.org/2000/svg" xmlns:xlink="http://www.w3.org/1999/xlink" 
	 width="800px" height="800px" viewBox="0 0 60.633 60.633"
	 xml:space="preserve">
<g>
	<path d="M49.4,24.961h-2.872v-8.749C46.528,7.273,39.255,0,30.316,0c-8.94,0-16.212,7.273-16.212,16.212v8.749h-2.872
		c-1.654,0-2.993,1.339-2.993,2.992v29.688c0,1.652,1.338,2.992,2.993,2.992H49.4c1.651,0,2.993-1.34,2.993-2.992V27.954
		C52.394,26.301,51.052,24.961,49.4,24.961z M20.088,16.212c0-5.64,4.588-10.228,10.228-10.228c5.64,0,10.228,4.589,10.228,10.228
		v8.749H20.088V16.212z M46.408,54.648H14.225V30.945h32.184V54.648z"/>
</g>
</svg>